<svg width="300" height="298" viewBox="0 0 600 298" fill="none" xmlns="http://www.w3.org/2000/svg">
<path d="M60.4036 139.152C79.0377 133.11 99.0787 123.319 114.925 107.455C155.965 66.3695 153.326 0.107666 153.326 0.107666C153.326 0.107666 84.1468 0.458878 43.1066 41.5446C11.6839 73.0022 5.86752 119.219 4.8671 139.152H0V159.152H4.88269C5.92708 179.249 11.8429 225.157 43.1066 256.455C84.1468 297.541 153.326 297.892 153.326 297.892C153.326 297.892 155.965 231.63 114.925 190.545C99.3423 174.945 79.7034 165.218 61.3347 159.152H152.205C153.25 179.249 159.166 225.157 190.429 256.455C231.47 297.541 300.648 297.892 300.648 297.892C300.648 297.892 303.288 231.63 262.247 190.545C246.665 174.945 227.026 165.218 208.658 159.152H299.528C300.573 179.249 306.489 225.157 337.752 256.455C378.793 297.541 447.971 297.892 447.971 297.892C447.971 297.892 450.611 231.63 409.57 190.545C393.988 174.945 374.349 165.218 355.98 159.152H446.852C447.896 179.249 453.812 225.157 485.075 256.455C526.116 297.541 595.294 297.892 595.294 297.892C595.294 297.892 597.934 231.63 556.893 190.545C541.311 174.945 521.672 165.218 503.303 159.152H600V139.152H502.372C521.006 133.11 541.047 123.319 556.893 107.455C597.934 66.3695 595.294 0.107666 595.294 0.107666C595.294 0.107666 526.116 0.458878 485.075 41.5446C453.653 73.0022 447.836 119.219 446.836 139.152H355.049C373.683 133.11 393.724 123.319 409.57 107.455C450.611 66.3695 447.971 0.107666 447.971 0.107666C447.971 0.107666 378.793 0.458878 337.752 41.5446C306.33 73.0022 300.513 119.219 299.513 139.152H207.726C226.36 133.11 246.401 123.319 262.247 107.455C303.288 66.3695 300.648 0.107666 300.648 0.107666C300.648 0.107666 231.47 0.458878 190.429 41.5446C159.007 73.0022 153.19 119.219 152.19 139.152H60.4036Z" fill="#E53333"/>
</svg>
